<svg width="487" height="72" viewBox="0 0 487 72" fill="none" xmlns="http://www.w3.org/2000/svg">
<path fill-rule="evenodd" clip-rule="evenodd" d="M69.7462 69.7415L36.3856 36.3859L47.1415 39.2672C55.2047 36.1374 60.466 32.5107 59.8201 30.1013C59.2091 27.8106 53.4014 27.2395 45.4624 28.3329C42.5113 25.0091 37.8366 23.4444 33.2509 24.6713C28.6655 25.8982 25.4062 29.5945 24.5121 33.9469C17.085 36.9669 12.3404 40.3656 12.9564 42.6652C13.7463 45.6114 23.131 45.7155 34.5925 43.0775L26.9716 71.5396C12.9215 67.7825 2.21806 55.8311 0.305343 41.1206L0.262694 40.7788C0.089316 39.3386 0 37.8727 0 36.3859C0 16.2898 16.2904 0 36.3862 0C46.4366 0 55.5332 4.06867 62.116 10.6561L69.7468 3.02562H81.874V69.7415H69.7468H69.7462Z" fill="#91C0F1"/>
<path d="M127.086 43.9868H129.479V36.5781H119.215C113.041 36.5781 108.642 38.0444 108.642 43.3694C108.642 46.8422 110.803 50.3922 116.205 50.3922C124.385 50.3922 126.314 45.5302 127.086 43.9868ZM121.067 14.5066C128.244 14.5066 136.038 17.2848 136.038 25.4652V55.3312H129.479V48.8487H127.086C124.925 54.1736 120.063 56.2573 114.97 56.2573C109.877 56.2573 102.082 53.7106 102.082 43.3694C102.082 35.3434 108.256 31.7934 118.366 31.7934H129.479V26.9315C129.479 21.7609 124.848 20.2946 120.758 20.2946C115.201 20.2946 111.111 21.9924 110.725 27.8575H104.166C104.629 17.9794 112.115 14.5066 121.067 14.5066Z" fill="#91C0F1"/>
<path d="M179.181 29.401V55.3312H172.699V28.6293C172.699 25.1565 172.313 20.3717 165.058 20.3717C156.955 20.3717 155.952 25.2337 155.257 26.7771H152.711V55.3312H146.228V15.5098H152.711V21.9152H155.257C157.341 16.5902 161.2 14.5066 166.293 14.5066C173.393 14.5066 179.181 18.0565 179.181 29.401Z" fill="#91C0F1"/>
<path d="M214.727 43.1379H217.196V26.6999H214.727C213.106 23.5358 210.945 20.3717 204.694 20.3717C198.752 20.3717 193.967 24.4619 193.967 34.9575C193.967 45.4531 198.752 49.4661 204.694 49.4661C210.945 49.4661 213.106 46.302 214.727 43.1379ZM217.196 15.4326H223.756V51.1639C224.065 64.4377 218.74 71.5376 205.775 71.5376C198.289 71.5376 189.877 68.4507 189.491 59.8073H196.051C196.282 64.5149 201.916 66.2899 206.083 66.2899C214.727 66.2899 217.196 60.116 217.196 51.1639V47.9226H214.727C213.569 51.3954 209.325 55.3312 203.691 55.3312C194.816 55.3312 186.944 48.6172 186.944 34.9575C186.944 21.2206 194.816 14.5066 203.691 14.5066C209.325 14.5066 213.569 18.4424 214.727 21.9152H217.196V15.4326Z" fill="#91C0F1"/>
<path d="M234.256 0.229492H240.816V30.4814H243.285L258.951 15.4326H267.749L251.388 30.4814H251.543L268.984 55.3312H260.495L246.989 35.2662H240.816V55.3312H234.256V0.229492Z" fill="#91C0F1"/>
<path d="M296.656 43.9868H299.049V36.5781H288.785C282.611 36.5781 278.212 38.0444 278.212 43.3694C278.212 46.8422 280.373 50.3922 285.775 50.3922C293.955 50.3922 295.885 45.5302 296.656 43.9868ZM290.637 14.5066C297.814 14.5066 305.609 17.2848 305.609 25.4652V55.3312H299.049V48.8487H296.656C294.496 54.1736 289.634 56.2573 284.54 56.2573C279.447 56.2573 271.652 53.7106 271.652 43.3694C271.652 35.3434 277.826 31.7934 287.936 31.7934H299.049V26.9315C299.049 21.7609 294.418 20.2946 290.328 20.2946C284.772 20.2946 280.682 21.9924 280.296 27.8575H273.736C274.199 17.9794 281.685 14.5066 290.637 14.5066Z" fill="#91C0F1"/>
<path d="M312.943 42.752H319.503C319.734 48.6172 324.905 50.4693 330.23 50.4693C334.32 50.4693 340.108 49.5433 340.108 44.527C340.108 34.2629 313.792 41.2085 313.792 25.851C313.792 17.825 321.664 14.5066 328.686 14.5066C337.639 14.5066 344.43 17.2848 345.047 27.0086H338.487C338.102 21.9152 333.471 20.2946 329.227 20.2946C325.291 20.2946 320.506 21.375 320.506 25.388C320.506 30.0184 327.683 30.9445 333.78 32.3336C340.34 33.7999 346.822 36.0379 346.822 43.6781C346.822 53.2476 337.947 56.2573 329.844 56.2573C320.892 56.2573 313.329 52.6302 312.943 42.752Z" fill="#91C0F1"/>
<path d="M376.844 43.9868H379.237V36.5781H368.973C362.799 36.5781 358.4 38.0444 358.4 43.3694C358.4 46.8422 360.561 50.3922 365.963 50.3922C374.143 50.3922 376.073 45.5302 376.844 43.9868ZM370.825 14.5066C378.002 14.5066 385.797 17.2848 385.797 25.4652V55.3312H379.237V48.8487H376.844C374.684 54.1736 369.822 56.2573 364.728 56.2573C359.635 56.2573 351.84 53.7106 351.84 43.3694C351.84 35.3434 358.014 31.7934 368.124 31.7934H379.237V26.9315C379.237 21.7609 374.606 20.2946 370.516 20.2946C364.96 20.2946 360.87 21.9924 360.484 27.8575H353.924C354.387 17.9794 361.873 14.5066 370.825 14.5066Z" fill="#91C0F1"/>
<path d="M417.417 32.67H415.617C415.397 30.61 414.057 29.75 412.077 29.75C410.457 29.75 408.877 30.33 408.877 32.19C408.877 35.71 418.017 33.23 418.017 38.85C418.017 41.89 415.037 43.11 412.437 43.11C409.237 43.11 406.537 41.53 406.537 38.07H408.337C408.337 40.47 410.337 41.51 412.497 41.51C414.217 41.51 416.117 40.97 416.117 38.91C416.117 34.99 406.977 37.57 406.977 32.35C406.977 29.45 409.537 28.15 412.157 28.15C415.077 28.15 417.337 29.53 417.417 32.67ZM420.225 28.49H431.645V30.09H426.885V42.77H424.985V30.09H420.225V28.49ZM446.049 28.49V37.61C446.049 41.23 444.009 43.11 440.429 43.11C436.749 43.11 434.569 41.41 434.569 37.61V28.49H436.469V37.61C436.469 40.15 437.889 41.51 440.429 41.51C442.849 41.51 444.149 40.15 444.149 37.61V28.49H446.049ZM452.402 30.09V41.17H455.562C456.862 41.17 460.362 40.81 460.362 35.55C460.362 32.15 459.102 30.09 455.602 30.09H452.402ZM450.502 42.77V28.49H455.402C459.802 28.49 462.262 30.71 462.262 35.29C462.262 40.07 460.162 42.77 455.402 42.77H450.502ZM466.064 42.77V28.49H467.964V42.77H466.064ZM478.6 41.51C481.8 41.51 483.5 38.89 483.5 35.63C483.5 32.37 481.8 29.75 478.6 29.75C475.36 29.75 473.66 32.37 473.66 35.63C473.66 38.89 475.36 41.51 478.6 41.51ZM478.6 28.15C481.08 28.15 485.4 29.55 485.4 35.63C485.4 41.71 481.08 43.11 478.6 43.11C476.08 43.11 471.76 41.71 471.76 35.63C471.76 29.55 476.08 28.15 478.6 28.15Z" fill="#91C0F1"/>
</svg>
